<?xml version="1.0" encoding="UTF-8"?>
<svg xmlns="http://www.w3.org/2000/svg" xmlns:xlink="http://www.w3.org/1999/xlink" width="44px" height="50px" viewBox="0 0 44 50" version="1.1">
<g id="surface1">
<path style=" stroke:none;fill-rule:nonzero;fill:rgb(0%,0%,0%);fill-opacity:1;" d="M 1.570312 12.890625 L 42.429688 12.890625 C 43.296875 12.890625 44 12.191406 44 11.328125 L 44 7.421875 C 44 6.558594 43.296875 5.859375 42.429688 5.859375 L 1.570312 5.859375 C 0.703125 5.859375 0 6.558594 0 7.421875 L 0 11.328125 C 0 12.191406 0.703125 12.890625 1.570312 12.890625 M 1.570312 28.515625 L 42.429688 28.515625 C 43.296875 28.515625 44 27.816406 44 26.953125 L 44 23.046875 C 44 22.183594 43.296875 21.484375 42.429688 21.484375 L 1.570312 21.484375 C 0.703125 21.484375 0 22.183594 0 23.046875 L 0 26.953125 C 0 27.816406 0.703125 28.515625 1.570312 28.515625 M 1.570312 44.140625 L 42.429688 44.140625 C 43.296875 44.140625 44 43.441406 44 42.578125 L 44 38.671875 C 44 37.808594 43.296875 37.109375 42.429688 37.109375 L 1.570312 37.109375 C 0.703125 37.109375 0 37.808594 0 38.671875 L 0 42.578125 C 0 43.441406 0.703125 44.140625 1.570312 44.140625 "/>
</g>
</svg>
